<svg width="24" height="24" viewBox="0 0 24 24" fill="none" xmlns="http://www.w3.org/2000/svg">
<path d="M11.0021 12.2469L4.92893 12.2539C4.9288 12.2539 4.92867 12.2539 4.92854 12.2539C4.86129 12.2538 4.79682 12.2271 4.74926 12.1795C4.70161 12.1319 4.67484 12.0672 4.67484 11.9999C4.67484 11.9325 4.70161 11.8678 4.74926 11.8202C4.79687 11.7726 4.86142 11.7458 4.92874 11.7458C4.9288 11.7458 4.92887 11.7458 4.92893 11.7458L11.0021 11.7528L11.7539 11.7537L11.753 11.002L11.7459 4.92879C11.7459 4.92869 11.7459 4.92859 11.7459 4.9285C11.746 4.86121 11.7727 4.7967 11.8203 4.74912C11.868 4.70147 11.9326 4.6747 12 4.6747C12.0674 4.6747 12.132 4.70147 12.1797 4.74912C12.2273 4.7967 12.254 4.86121 12.2541 4.9285C12.2541 4.92859 12.2541 4.92869 12.2541 4.92879L12.247 11.002L12.2461 11.7537L12.9979 11.7528L19.0711 11.7458C19.0711 11.7458 19.0712 11.7458 19.0713 11.7458C19.1386 11.7458 19.2031 11.7726 19.2507 11.8202C19.2984 11.8678 19.3252 11.9325 19.3252 11.9999C19.3252 12.0672 19.2984 12.1319 19.2507 12.1795C19.2032 12.2271 19.1387 12.2538 19.0715 12.2539C19.0713 12.2539 19.0712 12.2539 19.0711 12.2539L12.9979 12.2469L12.2461 12.246L12.247 12.9978L12.2541 19.0709C12.2541 19.0711 12.2541 19.0712 12.2541 19.0714C12.254 19.1386 12.2272 19.2031 12.1797 19.2506C12.132 19.2982 12.0674 19.325 12 19.325C11.9326 19.325 11.868 19.2982 11.8203 19.2506C11.7728 19.2031 11.746 19.1386 11.7459 19.0714C11.7459 19.0712 11.7459 19.0711 11.7459 19.0709L11.753 12.9978L11.7539 12.246L11.0021 12.2469Z" fill="white" stroke="white" stroke-width="1.5"/>
</svg>
