<svg width="24" height="24" viewBox="0 0 24 24" fill="none" xmlns="http://www.w3.org/2000/svg">
<path d="M17 18.4303H13L8.54999 21.3902C7.88999 21.8302 7 21.3603 7 20.5603V18.4303C4 18.4303 2 16.4303 2 13.4303V7.43018C2 4.43018 4 2.43018 7 2.43018H17C20 2.43018 22 4.43018 22 7.43018V13.4303C22 16.4303 20 18.4303 17 18.4303Z" stroke="#616162" stroke-width="1.5" stroke-miterlimit="10" stroke-linecap="round" stroke-linejoin="round"/>
<path d="M12.0001 11.3599V11.1499C12.0001 10.4699 12.4201 10.1099 12.8401 9.81988C13.2501 9.53988 13.66 9.17989 13.66 8.51989C13.66 7.59989 12.9201 6.85986 12.0001 6.85986C11.0801 6.85986 10.3401 7.59989 10.3401 8.51989" stroke="#616162" stroke-width="1.5" stroke-linecap="round" stroke-linejoin="round"/>
<path d="M11.9955 13.75H12.0045" stroke="#616162" stroke-width="1.5" stroke-linecap="round" stroke-linejoin="round"/>
</svg>
