<svg width="32" height="31" viewBox="0 0 32 31" fill="none" xmlns="http://www.w3.org/2000/svg">
<path d="M30.8929 15.5646C30.5183 15.19 29.8983 15.19 29.5237 15.5646L28.9296 16.1588V15.5C28.9296 8.37 23.13 2.57042 16 2.57042C12.0604 2.57042 8.37916 4.34 5.91207 7.41417C5.57624 7.8275 5.64082 8.4475 6.06707 8.78333C6.48041 9.10625 7.08749 9.04167 7.42332 8.62833C9.52874 6.00625 12.6546 4.50792 16 4.50792C22.0579 4.50792 26.9921 9.44208 26.9921 15.5V16.1458L26.3979 15.5517C26.0233 15.1771 25.4033 15.1771 25.0287 15.5517C24.6542 15.9263 24.6542 16.5463 25.0287 16.9208L27.2762 19.1683C27.3667 19.2588 27.47 19.3233 27.5862 19.375C27.7025 19.4267 27.8317 19.4525 27.9608 19.4525C28.09 19.4525 28.2062 19.4267 28.3354 19.375C28.4517 19.3233 28.555 19.2588 28.6454 19.1683L30.8929 16.9208C31.2675 16.5592 31.2675 15.9392 30.8929 15.5646Z" fill="#171717"/>
<path d="M25.9329 22.2167C25.5196 21.8808 24.8996 21.9454 24.5767 22.3717C22.4713 24.9937 19.3454 26.4921 16 26.4921C9.94211 26.4921 5.00794 21.5579 5.00794 15.5V14.8542L5.60211 15.4483C5.79586 15.6421 6.04128 15.7325 6.28669 15.7325C6.53211 15.7325 6.77753 15.6292 6.95836 15.4354C7.33294 15.0608 7.33294 14.4408 6.95836 14.0662L4.72378 11.8187C4.63336 11.7412 4.51711 11.6637 4.40086 11.6121C4.16836 11.5087 3.89711 11.5087 3.66461 11.6121C3.54836 11.6637 3.44503 11.7412 3.35461 11.8187L1.10711 14.0662C0.732526 14.4408 0.732526 15.0608 1.10711 15.4354C1.48169 15.81 2.10169 15.81 2.47628 15.4354L3.07044 14.8412V15.5C3.07044 22.63 8.87003 28.4296 16 28.4296C19.9396 28.4296 23.6209 26.66 26.0879 23.5858C26.4238 23.1725 26.3592 22.5525 25.9329 22.2167Z" fill="#B72935"/>
<path d="M20.4562 15.035C20.805 14.5183 20.9987 13.9112 20.9987 13.2396C20.9987 11.5217 19.4875 10.0104 17.7696 10.0104H16.7104V8.71875C16.7104 8.18917 16.2713 7.75 15.7417 7.75C15.2121 7.75 14.7729 8.18917 14.7729 8.71875V10.0104H12.125C11.5954 10.0104 11.1562 10.4496 11.1562 10.9792V15.5V20.0208C11.1562 20.5504 11.5954 20.9896 12.125 20.9896H14.7729V22.2812C14.7729 22.8108 15.2121 23.25 15.7417 23.25C16.2713 23.25 16.7104 22.8108 16.7104 22.2812V20.9896H18.5833C20.5467 20.9896 22.1354 19.5429 22.1354 17.7604C22.1354 16.6108 21.4637 15.6033 20.4562 15.035ZM13.0938 11.9479H17.7696C18.48 11.9479 19.0612 12.6583 19.0612 13.2396C19.0612 13.95 18.48 14.5312 17.7696 14.5312H13.0938V11.9479ZM18.5833 19.0521H13.0938V16.4688H17.7696H18.5833C19.4746 16.4688 20.1979 17.05 20.1979 17.7604C20.1979 18.4708 19.4746 19.0521 18.5833 19.0521Z" fill="#171717"/>
</svg>
