<svg width="32" height="32" viewBox="0 0 32 32" fill="none" xmlns="http://www.w3.org/2000/svg">
<path d="M16.2135 14.4932C16.0801 14.4798 15.9201 14.4798 15.7735 14.4932C12.6001 14.3865 10.0801 11.7865 10.0801 8.5865C10.0801 5.31984 12.7201 2.6665 16.0001 2.6665C19.2668 2.6665 21.9201 5.31984 21.9201 8.5865C21.9068 11.7865 19.3868 14.3865 16.2135 14.4932Z" stroke="white" stroke-width="1.77778" stroke-linecap="round" stroke-linejoin="round"/>
<path d="M9.54659 19.4135C6.31992 21.5735 6.31992 25.0935 9.54659 27.2402C13.2133 29.6935 19.2266 29.6935 22.8933 27.2402C26.12 25.0802 26.12 21.5602 22.8933 19.4135C19.24 16.9735 13.2266 16.9735 9.54659 19.4135Z" stroke="white" stroke-width="1.77778" stroke-linecap="round" stroke-linejoin="round"/>
</svg>
